<svg xmlns="http://www.w3.org/2000/svg" viewBox="0 0 800 800" width="800" height="800" role="img" aria-label="Daily Balance Capsules">
  <!-- [[PLACEHOLDER IMAGE]] Stylised illustration, not a photograph.
       Replace this file with real product photography at the same path (800x800). -->
  <defs>
    <linearGradient id="bg" x1="0" y1="0" x2="0.6" y2="1">
      <stop offset="0%" stop-color="hsl(138 14% 92%)"/>
      <stop offset="100%" stop-color="hsl(138 18% 84%)"/>
    </linearGradient>
    <linearGradient id="body" x1="0" y1="0" x2="1" y2="1">
      <stop offset="0%" stop-color="hsl(138 28% 58%)"/>
      <stop offset="55%" stop-color="hsl(138 28% 46%)"/>
      <stop offset="100%" stop-color="hsl(138 28% 34%)"/>
    </linearGradient>
    <radialGradient id="halo" cx="50%" cy="42%" r="52%">
      <stop offset="0%" stop-color="hsl(138 22% 76%)" stop-opacity="0.95"/>
      <stop offset="100%" stop-color="hsl(138 22% 76%)" stop-opacity="0"/>
    </radialGradient>
    <filter id="soft" x="-30%" y="-30%" width="160%" height="160%">
      <feGaussianBlur stdDeviation="18"/>
    </filter>
  </defs>

  <rect width="800" height="800" fill="url(#bg)"/>
  <circle cx="400" cy="376" r="250" fill="url(#halo)"/>
  <circle cx="640" cy="150" r="96" fill="hsl(138 16% 88%)" opacity="0.55"/>
  <circle cx="150" cy="654" r="62" fill="hsl(138 16% 88%)" opacity="0.45"/>

  <ellipse cx="400" cy="612" rx="176" ry="30" fill="hsl(138 28% 20%)" opacity="0.22" filter="url(#soft)"/>

  
    <rect x="286" y="300" width="228" height="288" rx="30" fill="url(#body)"/>
    <rect x="286" y="300" width="76" height="288" rx="30" fill="hsl(138 28% 60%)" opacity="0.35"/>
    <rect x="322" y="232" width="156" height="76" rx="18" fill="hsl(138 28% 34%)"/>
    <rect x="322" y="232" width="156" height="26" rx="13" fill="hsl(138 28% 42%)"/>
    <rect x="306" y="372" width="188" height="150" rx="12" fill="#fff" opacity="0.93"/>
    <rect x="330" y="398" width="86" height="9" rx="4.5" fill="hsl(138 28% 48%)"/>

  <text x="400" y="690" text-anchor="middle" font-family="system-ui, -apple-system, 'Segoe UI', sans-serif"
        font-size="27" font-weight="600" letter-spacing="-0.4" fill="hsl(138 22% 16%)">Daily Balance Capsules</text>
  <text x="400" y="762" text-anchor="middle" font-family="system-ui, -apple-system, 'Segoe UI', sans-serif"
        font-size="14" letter-spacing="1.6" fill="hsl(138 18% 24%)" opacity="0.5">PLACEHOLDER IMAGE</text>
</svg>
