<svg xmlns="http://www.w3.org/2000/svg" viewBox="0 0 800 800" width="800" height="800" role="img" aria-label="Hydration Sticks">
  <!-- [[PLACEHOLDER IMAGE]] Stylised illustration, not a photograph.
       Replace this file with real product photography at the same path (800x800). -->
  <defs>
    <linearGradient id="bg" x1="0" y1="0" x2="0.6" y2="1">
      <stop offset="0%" stop-color="hsl(187.98230088495575 38% 92%)"/>
      <stop offset="100%" stop-color="hsl(187.98230088495575 42% 84%)"/>
    </linearGradient>
    <linearGradient id="body" x1="0" y1="0" x2="1" y2="1">
      <stop offset="0%" stop-color="hsl(187.98230088495575 52% 58%)"/>
      <stop offset="55%" stop-color="hsl(187.98230088495575 52% 46%)"/>
      <stop offset="100%" stop-color="hsl(187.98230088495575 52% 34%)"/>
    </linearGradient>
    <radialGradient id="halo" cx="50%" cy="42%" r="52%">
      <stop offset="0%" stop-color="hsl(187.98230088495575 46% 76%)" stop-opacity="0.95"/>
      <stop offset="100%" stop-color="hsl(187.98230088495575 46% 76%)" stop-opacity="0"/>
    </radialGradient>
    <filter id="soft" x="-30%" y="-30%" width="160%" height="160%">
      <feGaussianBlur stdDeviation="18"/>
    </filter>
  </defs>

  <rect width="800" height="800" fill="url(#bg)"/>
  <circle cx="400" cy="376" r="250" fill="url(#halo)"/>
  <circle cx="640" cy="150" r="96" fill="hsl(187.98230088495575 40% 88%)" opacity="0.55"/>
  <circle cx="150" cy="654" r="62" fill="hsl(187.98230088495575 40% 88%)" opacity="0.45"/>

  <ellipse cx="400" cy="612" rx="176" ry="30" fill="hsl(187.98230088495575 52% 20%)" opacity="0.22" filter="url(#soft)"/>

  
    <path d="M260 316 l140 -66 l140 66 v240 l-140 66 l-140 -66 z" fill="url(#body)"/>
    <path d="M260 316 l140 66 v240 l-140 -66 z" fill="hsl(187.98230088495575 52% 38%)" opacity="0.9"/>
    <path d="M400 250 l140 66 l-140 66 l-140 -66 z" fill="hsl(187.98230088495575 52% 60%)"/>
    <rect x="300" y="412" width="86" height="128" rx="8" fill="#fff" opacity="0.9" transform="skewY(6)"/>

  <text x="400" y="690" text-anchor="middle" font-family="system-ui, -apple-system, 'Segoe UI', sans-serif"
        font-size="27" font-weight="600" letter-spacing="-0.4" fill="hsl(187.98230088495575 46% 16%)">Hydration Sticks</text>
  <text x="400" y="762" text-anchor="middle" font-family="system-ui, -apple-system, 'Segoe UI', sans-serif"
        font-size="14" letter-spacing="1.6" fill="hsl(187.98230088495575 42% 24%)" opacity="0.5">PLACEHOLDER IMAGE</text>
</svg>
