<svg xmlns="http://www.w3.org/2000/svg" viewBox="0 0 800 800" width="800" height="800" role="img" aria-label="Silk Sleep Mask — Ivory">
  <!-- [[PLACEHOLDER IMAGE]] Stylised illustration, not a photograph.
       Replace this file with real product photography at the same path (800x800). -->
  <defs>
    <linearGradient id="bg" x1="0" y1="0" x2="0.6" y2="1">
      <stop offset="0%" stop-color="hsl(38.82352941176475 27.53488372093021% 79.56862745098039%)"/>
      <stop offset="100%" stop-color="hsl(38.82352941176475 27.53488372093021% 71.56862745098039%)"/>
    </linearGradient>
    <linearGradient id="body" x1="0" y1="0" x2="1" y2="1">
      <stop offset="0%" stop-color="hsl(38.82352941176475 39.53488372093021% 96.56862745098039%)"/>
      <stop offset="55%" stop-color="hsl(38.82352941176475 39.53488372093021% 91.56862745098039%)"/>
      <stop offset="100%" stop-color="hsl(38.82352941176475 39.53488372093021% 86.56862745098039%)"/>
    </linearGradient>
    <radialGradient id="halo" cx="50%" cy="42%" r="52%">
      <stop offset="0%" stop-color="hsl(38.82352941176475 27.53488372093021% 82.56862745098039%)" stop-opacity="0.9"/>
      <stop offset="100%" stop-color="hsl(38.82352941176475 27.53488372093021% 82.56862745098039%)" stop-opacity="0"/>
    </radialGradient>
    <filter id="soft" x="-30%" y="-30%" width="160%" height="160%">
      <feGaussianBlur stdDeviation="18"/>
    </filter>
  </defs>

  <rect width="800" height="800" fill="url(#bg)"/>
  <circle cx="400" cy="376" r="250" fill="url(#halo)"/>
  <circle cx="640" cy="150" r="96" fill="hsl(38.82352941176475 27.53488372093021% 83.56862745098039%)" opacity="0.6"/>
  <circle cx="150" cy="654" r="62" fill="hsl(38.82352941176475 27.53488372093021% 83.56862745098039%)" opacity="0.5"/>

  <ellipse cx="400" cy="612" rx="176" ry="30" fill="hsl(38.82352941176475 39.53488372093021% 65.56862745098039%)" opacity="0.22" filter="url(#soft)"/>

  
    <path d="M118 400 q60 -60 130 -60 q80 0 152 0 q72 0 152 0 q70 0 130 60 q-60 60 -130 60 q-80 0 -152 0 q-72 0 -152 0 q-70 0 -130 -60 z" fill="none" stroke="hsl(38.82352941176475 39.53488372093021% 77.56862745098039%)" stroke-width="14" opacity="0.45"/>
    <path d="M214 336 h372 a86 86 0 0 1 0 172 h-372 a86 86 0 0 1 0 -172 z" fill="url(#body)"/>
    <path d="M214 336 h150 a86 86 0 0 0 0 172 h-150 a86 86 0 0 1 0 -172 z" fill="hsl(38.82352941176475 39.53488372093021% 100%)" opacity="0.5"/>
    <path d="M400 336 q-34 86 0 172" stroke="hsl(38.82352941176475 39.53488372093021% 81.56862745098039%)" stroke-width="10" fill="none" opacity="0.4"/>
    <ellipse cx="300" cy="400" rx="46" ry="26" fill="hsl(38.82352941176475 39.53488372093021% 100%)" opacity="0.4"/>

  <text x="400" y="694" text-anchor="middle" font-family="system-ui, -apple-system, 'Segoe UI', sans-serif"
        font-size="26" font-weight="600" letter-spacing="-0.3" fill="hsl(38.82352941176475 27.53488372093021% 23.568627450980387%)">Silk Sleep Mask — Ivo…</text>
  <text x="400" y="762" text-anchor="middle" font-family="system-ui, -apple-system, 'Segoe UI', sans-serif"
        font-size="14" letter-spacing="1.6" fill="hsl(38.82352941176475 27.53488372093021% 35.56862745098039%)" opacity="0.5">PLACEHOLDER IMAGE</text>
</svg>
